%TF.GenerationSoftware,KiCad,Pcbnew,10.0.5*%
%TF.CreationDate,2026-08-10T22:34:34+08:00*%
%TF.ProjectId,micro_usb_type_c_adapter,6d696372-6f5f-4757-9362-5f747970655f,rev?*%
%TF.SameCoordinates,Original*%
%TF.FileFunction,Legend,Top*%
%TF.FilePolarity,Positive*%
%FSLAX46Y46*%
G04 Gerber Fmt 4.6, Leading zero omitted, Abs format (unit mm)*
G04 Created by KiCad (PCBNEW 10.0.5) date 2026-08-10 22:34:34*
%MOMM*%
%LPD*%
G01*
G04 APERTURE LIST*
%ADD10C,0.100000*%
%ADD11C,0.120000*%
%ADD12C,0.150000*%
G04 APERTURE END LIST*
D10*
X125946741Y-84882419D02*
X125899122Y-84858609D01*
X125899122Y-84858609D02*
X125827693Y-84858609D01*
X125827693Y-84858609D02*
X125756265Y-84882419D01*
X125756265Y-84882419D02*
X125708646Y-84930038D01*
X125708646Y-84930038D02*
X125684836Y-84977657D01*
X125684836Y-84977657D02*
X125661027Y-85072895D01*
X125661027Y-85072895D02*
X125661027Y-85144323D01*
X125661027Y-85144323D02*
X125684836Y-85239561D01*
X125684836Y-85239561D02*
X125708646Y-85287180D01*
X125708646Y-85287180D02*
X125756265Y-85334800D01*
X125756265Y-85334800D02*
X125827693Y-85358609D01*
X125827693Y-85358609D02*
X125875312Y-85358609D01*
X125875312Y-85358609D02*
X125946741Y-85334800D01*
X125946741Y-85334800D02*
X125970550Y-85310990D01*
X125970550Y-85310990D02*
X125970550Y-85144323D01*
X125970550Y-85144323D02*
X125875312Y-85144323D01*
X123734836Y-85093133D02*
X124115789Y-85093133D01*
X124734836Y-85093133D02*
X125115789Y-85093133D01*
X124925312Y-85283609D02*
X124925312Y-84902657D01*
X122213408Y-84908609D02*
X122380074Y-85408609D01*
X122380074Y-85408609D02*
X122546741Y-84908609D01*
%TO.C,J7*%
D11*
X119280000Y-86675000D02*
X119280000Y-93175000D01*
X119280000Y-86675000D02*
X120350000Y-86675000D01*
X119280000Y-93175000D02*
X128820000Y-93175000D01*
X127750000Y-86675000D02*
X128820000Y-86675000D01*
X128820000Y-86675000D02*
X128820000Y-93175000D01*
D12*
X119975000Y-86100000D02*
G75*
G02*
X119825000Y-86100000I-75000J0D01*
G01*
X119825000Y-86100000D02*
G75*
G02*
X119975000Y-86100000I75000J0D01*
G01*
%TO.C,R2*%
D11*
X128571359Y-84870000D02*
X128878641Y-84870000D01*
X128571359Y-85630000D02*
X128878641Y-85630000D01*
%TO.C,R1*%
X119503641Y-84870000D02*
X119196359Y-84870000D01*
X119503641Y-85630000D02*
X119196359Y-85630000D01*
%TD*%
M02*
